<?xml version="1.0" encoding="utf-8"?>
<!-- Generator: Adobe Illustrator 20.0.0, SVG Export Plug-In . SVG Version: 6.00 Build 0)  -->
<svg version="1.1" id="Layer_1" xmlns="http://www.w3.org/2000/svg" xmlns:xlink="http://www.w3.org/1999/xlink" x="0px" y="0px"
	 viewBox="0 0 405 238" style="enable-background:new 0 0 405 238;" xml:space="preserve">
<style type="text/css">
	.st0{fill:#2AADE2;}
	.st1{fill:#FFFFFE;}
	.st2{fill:#8FD7EF;}
	.st3{fill:#DCFFDF;}
	.st4{fill:#7FC2D8;}
</style>
<title>Group 8</title>
<desc>Created with Sketch.</desc>
<g id="Page-1">
	<g id="Dias.fi" transform="translate(-159.000000, -935.000000)">
		<g id="Rectangle-Copy-8" transform="translate(12.000000, 664.000000)">
			<g id="Group-8" transform="translate(147.000000, 271.000000)">
				<g id="Group-7">
					<path id="Rectangle" class="st0" d="M116.7,0c7.7,0,15.6,0.9,23.8,2.6l66,22.4c6.4,2.5,12.7,3.7,18.6,3.7c6,0,6,14.9,0,44.8
						L120.1,42.3C99.7,14.1,98.6,0,116.7,0z"/>
					<path id="Rectangle_1_" class="st0" d="M56,0.1h60.5c11,0,20,9,20,20V218c0,11-9,20-20,20H56c-11,0-20-9-20-20V20.1
						C36,9,45,0.1,56,0.1z"/>
					<path id="Rectangle_2_" class="st0" d="M118.4,28.6h200.2c11,0,20,9,20,20v91.1c0,11-9,20-20,20H118.4c-11,0-20-9-20-20V48.6
						C98.4,37.6,107.4,28.6,118.4,28.6z"/>
					
						<g id="Group-5" transform="translate(176.906022, 136.881610) rotate(90.000000) translate(-176.906022, -136.881610) translate(82.199651, -2.182549)">
						<polygon id="Fill-6" class="st1" points="188.5,241.8 0.2,241.8 0.1,-35.3 188.5,-34.9 						"/>
					</g>
					<path id="Combined-Shape" class="st2" d="M74.1,100.5h274.2c11,0,20,9,20,20V218c0,11-9,20-20,20H56c-0.2,0-0.3,0-0.5,0
						c10.3-0.2,18.6-8.7,18.6-19V100.5z M36,218v-97.5V218z"/>
					<path id="Rectangle_3_" class="st2" d="M94.1,57.2h254.2c11,0,20,9,20,20V218c0,11-9,20-20,20H94.1c-11,0-20-9-20-20V77.2
						C74.1,66.1,83,57.2,94.1,57.2z"/>
				</g>
				<circle id="Oval" class="st3" cx="346" cy="155" r="3"/>
				<circle id="Oval_1_" class="st4" cx="346" cy="140" r="3"/>
				<circle id="Oval_2_" class="st3" cx="346" cy="170" r="3"/>
				<circle id="Oval_3_" class="st3" cx="346" cy="185" r="3"/>
			</g>
		</g>
		<g id="Page">
		</g>
	</g>
</g>
</svg>
