<?xml version="1.0" encoding="utf-8"?>
<!-- Generator: Adobe Illustrator 20.0.0, SVG Export Plug-In . SVG Version: 6.00 Build 0)  -->
<svg version="1.1" id="Layer_1" xmlns="http://www.w3.org/2000/svg" xmlns:xlink="http://www.w3.org/1999/xlink" x="0px" y="0px"
	 viewBox="0 0 271.8 207.4" style="enable-background:new 0 0 271.8 207.4;" xml:space="preserve">
<style type="text/css">
	.st0{fill:#D0D3D2;}
	.st1{fill:#F06E22;}
	.st2{fill:#F58F57;}
	.st3{fill:#F37C35;}
	.st4{fill:#F6935B;}
	.st5{fill:#F37F39;}
	.st6{fill:#523215;}
</style>
<path class="st0" d="M135.9,207.4c-67.1,0-121.5-2-121.5-4.6c0-2.5,54.4-4.6,121.5-4.6c67.1,0,121.5,2,121.5,4.6
	C257.4,205.4,203,207.4,135.9,207.4"/>
<path class="st1" d="M216.1,28.7C217.2,12.9,205.9,0,191,0H81C66.1,0,54.8,12.9,55.9,28.7l6.8,95.8c1.1,15.8,14.2,28.7,29.2,28.7
	h88.3c14.9,0,28-12.9,29.2-28.7L216.1,28.7"/>
<rect x="62.6" y="112.5" class="st1" width="148.5" height="39.6"/>
<path class="st2" d="M81.4,105.6c0,14.8,0,78.7,0,78.7H64.6c0,0,0.6-46.1-1-61.5c-1.9-18.3-4.8-33-12.1-41.7
	c-7.6-9-17.5-9.9-23.8-2.3c-4.9,5.9-0.9,14.7,4.6,20.8c4.3,4.8,6.5,8.1,6.5,8.1s-3.1,1.2-8.8-0.3c-15.3-4-17.5-21.7-14.3-31.7
	c4.3-13.4,16-21.4,30.4-20.4C76,57.4,81.4,90.8,81.4,105.6"/>
<path class="st3" d="M64.6,184.3c0,0-9.8,0-13,0c-2.5,0-5.4-2.6-5.4-6.7c0.1-13.8,0.3-44.7-0.3-50.8c-1.1-12.6-7.2-19.1-7.2-19.1
	s-2.2-3.3-6.5-8.1c-5.5-6.1-9.4-14.8-4.6-20.8c6.6-8.3,16.2-6.7,23.8,2.3c7.3,8.7,10.3,23.4,12.1,41.7
	C65.1,138.2,64.6,184.3,64.6,184.3"/>
<path class="st2" d="M190.4,105.6c0,14.8,0,78.7,0,78.7h16.9c0,0-0.6-46.1,1-61.5c1.9-18.3,4.8-33,12.1-41.7
	c7.6-9,18.5-9.6,23.8-2.3c4.5,6.2,0.9,14.7-4.6,20.8c-4.3,4.8-6.5,8.1-6.5,8.1s3.1,1.2,8.8-0.3c15.3-4,17.5-21.7,14.3-31.7
	c-4.3-13.4-16-21.4-30.4-20.4C195.8,57.4,190.4,90.8,190.4,105.6"/>
<path class="st3" d="M207.2,184.3c0,0,9.8,0,13,0c2.5,0,5.4-2.6,5.4-6.7c-0.1-13.8-0.3-44.7,0.3-50.8c1.1-12.6,7.2-19.1,7.2-19.1
	s2.2-3.3,6.5-8.1c5.5-6.1,10.2-13.8,4.6-20.8c-6-7.5-16.2-6.7-23.8,2.3c-7.3,8.7-10.3,23.4-12.1,41.7
	C206.7,138.2,207.2,184.3,207.2,184.3"/>
<rect x="61.9" y="152.1" class="st3" width="148.5" height="32.3"/>
<path class="st4" d="M205.1,117v26.6c0,5.9-5.2,7.2-11.5,7.2H78.4c-6.4,0-11.5-1.3-11.5-7.2V117c0-0.4,0-0.7,0.1-1.1
	c0.6-5.3,5.6-8.5,11.4-9.6C90.5,104,123,104,136,104c13,0,44.3,0,57.6,2.3c5.9,1,10.9,4.3,11.4,9.6
	C205.1,116.3,205.1,116.6,205.1,117"/>
<path class="st5" d="M205.1,115.9v27.7c0,5.9-5.2,7.2-11.5,7.2H78.4c-6.4,0-11.5-1.3-11.5-7.2v-27.7H205.1"/>
<polyline class="st6" points="51.6,184.3 52.8,203.3 62.7,203.3 66.7,184.3 51.6,184.3 "/>
<polyline class="st6" points="220.2,184.3 219,203.3 209.1,203.3 205.1,184.3 220.2,184.3 "/>
</svg>
