<svg xmlns="http://www.w3.org/2000/svg" width="208" height="30" viewBox="0 0 208 30">
    <g fill="none" fill-rule="evenodd">
        <path fill="#2AD0A7" d="M9.22 19.564h1.188c3.652 0 5.06-.704 5.06-5.632 0-3.872-1.408-5.412-4.708-5.412H9.22v11.044zM11.156 27H.2V1.084h11.748c7.744 0 12.936 3.74 12.936 12.848C24.884 23.524 19.692 27 11.156 27zM28.284 1.084h9.02V27h-9.02V1.084zM59.492 27l-1.144-3.52h-8.536L48.756 27H39.78l8.492-25.916h12.012L68.82 27h-9.328zM56.28 16.748l-.924-3.564c-.748-2.816-1.276-5.06-1.276-5.06h-.176s-.396 2.244-1.144 5.06l-.924 3.564h4.444zm13.036 4.62L77.5 18.42c.572 1.584 1.584 2.244 2.948 2.244 1.188 0 1.804-.396 1.804-1.188 0-.704-.572-1.1-1.98-1.32-7.656-1.188-10.208-3.872-10.208-8.624 0-6.776 5.148-8.976 11-8.976 5.676 0 9.636 1.98 10.692 6.688L83.088 9.18c-.22-1.408-1.144-1.848-2.332-1.848-.968 0-1.54.396-1.54 1.1 0 .836.748 1.276 2.86 1.54 6.6.792 9.812 3.784 9.812 9.064 0 6.248-5.28 8.492-11.748 8.492-5.368 0-9.636-1.848-10.824-6.16z"/>
        <path fill="#FFF" d="M119.889 11V1.047h3.062c.875 0 1.658.197 2.348.591.69.394 1.23.955 1.617 1.682s.581 1.553.581 2.478v.458c0 .925-.19 1.748-.57 2.468a4.088 4.088 0 0 1-1.61 1.674c-.693.397-1.475.597-2.345.602h-3.083zm2.05-8.292v6.645h.992c.802 0 1.415-.263 1.839-.787.423-.524.64-1.273.649-2.249v-.526c0-1.012-.21-1.778-.629-2.3-.42-.522-1.032-.783-1.839-.783h-1.012zM130.942 11h-1.982V3.604h1.982V11zm-2.098-9.31c0-.297.099-.54.297-.732.198-.191.468-.287.81-.287.337 0 .606.096.807.287.2.191.3.435.3.731a.97.97 0 0 1-.304.739c-.202.191-.47.287-.803.287-.333 0-.6-.096-.803-.287a.97.97 0 0 1-.304-.739zm3.438 5.557c0-1.135.27-2.048.81-2.741.54-.693 1.268-1.04 2.184-1.04.812 0 1.443.279 1.894.835l.082-.697h1.791v7.15c0 .647-.147 1.21-.44 1.688a2.832 2.832 0 0 1-1.242 1.094c-.533.25-1.157.376-1.873.376a4.056 4.056 0 0 1-1.586-.325c-.515-.216-.904-.495-1.169-.837l.875-1.203c.493.551 1.09.827 1.791.827.525 0 .932-.14 1.224-.42.292-.28.438-.678.438-1.193v-.397c-.456.515-1.055.773-1.798.773-.889 0-1.608-.348-2.157-1.043-.55-.695-.824-1.616-.824-2.765v-.082zm1.976.144c0 .67.134 1.195.403 1.575.269.38.638.571 1.108.571.601 0 1.032-.225 1.292-.677V5.75c-.265-.451-.69-.677-1.279-.677-.474 0-.846.194-1.117.581-.272.388-.407.966-.407 1.737zM142.646 11h-1.983V3.604h1.983V11zm-2.1-9.31c0-.297.1-.54.298-.732.198-.191.468-.287.81-.287.338 0 .606.096.807.287.2.191.3.435.3.731a.97.97 0 0 1-.303.739c-.203.191-.471.287-.804.287-.332 0-.6-.096-.803-.287a.97.97 0 0 1-.304-.739zm6.092.095v1.819h1.264v1.449h-1.264v3.691c0 .274.052.47.157.588.105.119.305.178.601.178.22 0 .413-.016.582-.048v1.497a4.067 4.067 0 0 1-1.197.178c-1.385 0-2.092-.7-2.119-2.099V5.053h-1.08v-1.45h1.08V1.786h1.976zM153.289 11a2.194 2.194 0 0 1-.198-.663c-.479.533-1.1.8-1.866.8-.725 0-1.325-.21-1.802-.63a2.023 2.023 0 0 1-.714-1.585c0-.784.29-1.386.872-1.805.58-.42 1.42-.631 2.519-.636h.909v-.423c0-.342-.088-.616-.263-.82-.176-.206-.453-.308-.831-.308-.333 0-.594.08-.783.239-.189.16-.283.378-.283.656h-1.976c0-.428.132-.825.397-1.19.264-.364.638-.65 1.12-.857a4.086 4.086 0 0 1 1.628-.311c.911 0 1.635.229 2.17.687.535.458.803 1.102.803 1.931v3.206c.005.702.103 1.233.294 1.593V11h-1.996zm-1.634-1.374c.292 0 .56-.065.807-.195a1.28 1.28 0 0 0 .547-.523V7.637h-.738c-.99 0-1.516.342-1.58 1.025l-.006.116a.79.79 0 0 0 .26.609c.173.16.41.239.71.239zm9.14 1.374a2.194 2.194 0 0 1-.198-.663c-.479.533-1.1.8-1.867.8-.724 0-1.325-.21-1.8-.63a2.023 2.023 0 0 1-.715-1.585c0-.784.29-1.386.871-1.805.581-.42 1.421-.631 2.52-.636h.909v-.423c0-.342-.088-.616-.264-.82-.175-.206-.452-.308-.83-.308-.333 0-.594.08-.783.239-.189.16-.284.378-.284.656h-1.975c0-.428.132-.825.396-1.19.265-.364.638-.65 1.121-.857a4.086 4.086 0 0 1 1.627-.311c.912 0 1.635.229 2.17.687.536.458.804 1.102.804 1.931v3.206c.005.702.103 1.233.294 1.593V11h-1.996zm-1.634-1.374c.292 0 .56-.065.807-.195a1.28 1.28 0 0 0 .547-.523V7.637h-.739c-.989 0-1.515.342-1.579 1.025l-.007.116a.79.79 0 0 0 .26.609c.173.16.41.239.711.239zM166.1 11h-1.983V.5h1.983V11zm3.712 0h-1.983V3.604h1.983V11zm-2.1-9.31c0-.297.1-.54.298-.732.198-.191.469-.287.81-.287.338 0 .606.096.807.287.2.191.3.435.3.731a.97.97 0 0 1-.303.739c-.203.191-.471.287-.804.287-.332 0-.6-.096-.803-.287a.97.97 0 0 1-.304-.739zm5.545 1.914l.061.854c.529-.66 1.238-.991 2.126-.991.784 0 1.368.23 1.75.69.383.46.58 1.149.588 2.065V11h-1.975V6.27c0-.42-.092-.724-.274-.913-.182-.19-.485-.284-.909-.284-.556 0-.973.237-1.251.711V11h-1.976V3.604h1.86zm9.427 7.533c-1.085 0-1.968-.333-2.65-.998-.68-.666-1.021-1.552-1.021-2.66v-.19c0-.744.143-1.408.43-1.994a3.16 3.16 0 0 1 1.22-1.353c.527-.317 1.127-.475 1.802-.475 1.012 0 1.808.319 2.389.957.581.638.872 1.542.872 2.714v.806h-4.71c.063.483.256.87.577 1.162.322.292.728.438 1.22.438.762 0 1.356-.276 1.785-.827l.97 1.087c-.296.419-.697.746-1.203.98a3.947 3.947 0 0 1-1.681.353zm-.226-6.07c-.392 0-.71.132-.954.396-.243.264-.4.642-.468 1.135h2.748V6.44c-.009-.437-.127-.775-.355-1.015-.228-.239-.552-.359-.971-.359zm6.207-1.463l.062.854c.528-.66 1.237-.991 2.126-.991.783 0 1.367.23 1.75.69.382.46.578 1.149.587 2.065V11h-1.975V6.27c0-.42-.091-.724-.274-.913-.182-.19-.485-.284-.909-.284-.556 0-.973.237-1.25.711V11h-1.976V3.604h1.859zM124.045 27a2.194 2.194 0 0 1-.198-.663c-.479.533-1.1.8-1.867.8-.724 0-1.325-.21-1.8-.63a2.023 2.023 0 0 1-.715-1.585c0-.784.29-1.386.871-1.805.581-.42 1.421-.631 2.52-.636h.909v-.423c0-.342-.088-.616-.264-.82-.175-.206-.452-.308-.83-.308-.333 0-.594.08-.783.239-.189.16-.284.378-.284.656h-1.975c0-.428.132-.825.396-1.19.265-.364.638-.65 1.121-.857a4.086 4.086 0 0 1 1.627-.311c.912 0 1.635.229 2.17.687.536.458.804 1.102.804 1.931v3.206c.005.702.103 1.233.294 1.593V27h-1.996zm-1.634-1.374c.292 0 .56-.065.807-.195a1.28 1.28 0 0 0 .547-.523v-1.271h-.739c-.989 0-1.515.342-1.579 1.025l-.007.116a.79.79 0 0 0 .26.609c.173.16.41.239.711.239zm8.86-.67c0-.241-.12-.432-.36-.57-.239-.14-.623-.264-1.151-.373-1.76-.37-2.639-1.117-2.639-2.242 0-.657.272-1.205.817-1.645.545-.44 1.257-.66 2.136-.66.939 0 1.69.222 2.253.664.562.442.844 1.016.844 1.723h-1.976a.956.956 0 0 0-.273-.701c-.182-.185-.467-.277-.855-.277-.332 0-.59.075-.772.226a.712.712 0 0 0-.274.574c0 .219.104.395.312.53.207.134.557.25 1.049.348a8.57 8.57 0 0 1 1.244.332c1.044.383 1.565 1.046 1.565 1.989 0 .675-.289 1.22-.868 1.637-.579.417-1.326.626-2.242.626-.62 0-1.17-.11-1.65-.332-.482-.22-.859-.524-1.132-.909-.274-.385-.41-.8-.41-1.248h1.873c.018.351.148.62.39.807.24.187.564.28.97.28.378 0 .664-.071.858-.215a.67.67 0 0 0 .29-.564zm7.622 1.292c-.488.592-1.163.889-2.024.889-.793 0-1.398-.228-1.815-.684-.417-.456-.63-1.123-.639-2.003v-4.846h1.976v4.778c0 .77.35 1.155 1.052 1.155.67 0 1.13-.232 1.381-.697v-5.236h1.983V27h-1.86l-.054-.752zm5.222-6.644l.062.854c.528-.66 1.237-.991 2.126-.991.784 0 1.367.23 1.75.69.383.46.579 1.149.588 2.065V27h-1.976v-4.73c0-.42-.091-.724-.273-.913-.183-.19-.486-.284-.91-.284-.556 0-.973.237-1.25.711V27h-1.976v-7.396h1.86zm8.388-1.819v1.819h1.265v1.449h-1.265v3.691c0 .274.052.47.157.588.105.119.305.178.602.178.218 0 .412-.016.58-.048v1.497a4.067 4.067 0 0 1-1.196.178c-1.385 0-2.091-.7-2.119-2.099v-3.985h-1.08v-1.45h1.08v-1.818h1.976zm2.058 5.448c0-.733.14-1.387.423-1.962a3.103 3.103 0 0 1 1.22-1.333c.532-.314 1.148-.471 1.85-.471.998 0 1.812.305 2.444.916.63.61.983 1.44 1.056 2.488l.013.506c0 1.135-.316 2.045-.95 2.73-.633.687-1.483 1.03-2.55 1.03-1.066 0-1.917-.342-2.553-1.026-.636-.683-.953-1.613-.953-2.789v-.089zm1.975.144c0 .702.132 1.238.397 1.61.264.371.642.557 1.134.557.479 0 .853-.183 1.121-.55.27-.367.404-.954.404-1.76 0-.689-.135-1.222-.404-1.6-.268-.378-.647-.568-1.134-.568-.483 0-.857.188-1.121.564-.265.376-.397.959-.397 1.747zm8.935.656l-.711.711V27h-1.976V16.5h1.976v5.817l.383-.492 1.893-2.221h2.372l-2.673 3.083L169.641 27h-2.27l-1.9-2.967zM174.549 27a2.194 2.194 0 0 1-.198-.663c-.479.533-1.101.8-1.867.8-.724 0-1.325-.21-1.8-.63a2.023 2.023 0 0 1-.715-1.585c0-.784.29-1.386.871-1.805.581-.42 1.421-.631 2.52-.636h.909v-.423c0-.342-.088-.616-.264-.82-.175-.206-.452-.308-.83-.308-.333 0-.594.08-.783.239-.189.16-.284.378-.284.656h-1.975c0-.428.132-.825.396-1.19.265-.364.638-.65 1.121-.857a4.086 4.086 0 0 1 1.627-.311c.912 0 1.635.229 2.17.687.536.458.804 1.102.804 1.931v3.206c.005.702.103 1.233.294 1.593V27h-1.996zm-1.634-1.374c.292 0 .56-.065.807-.195a1.28 1.28 0 0 0 .547-.523v-1.271h-.739c-.989 0-1.515.342-1.579 1.025l-.007.116a.79.79 0 0 0 .26.609c.173.16.41.239.711.239zm9.283.622c-.487.592-1.162.889-2.023.889-.793 0-1.398-.228-1.815-.684-.417-.456-.63-1.123-.64-2.003v-4.846h1.976v4.778c0 .77.351 1.155 1.053 1.155.67 0 1.13-.232 1.38-.697v-5.236h1.983V27h-1.86l-.054-.752zm10.063-2.878c0 1.14-.259 2.052-.776 2.738-.517.686-1.216 1.029-2.095 1.029-.748 0-1.352-.26-1.812-.78v3.487h-1.975v-10.24h1.832l.068.724c.478-.574 1.103-.861 1.873-.861.911 0 1.62.337 2.126 1.012.506.674.759 1.604.759 2.789v.102zm-1.976-.143c0-.689-.122-1.22-.366-1.593-.243-.374-.598-.56-1.063-.56-.62 0-1.045.236-1.278.71v3.029c.242.487.672.73 1.292.73.943 0 1.415-.772 1.415-2.316zm9.858.143c0 1.14-.259 2.052-.776 2.738-.518.686-1.216 1.029-2.096 1.029-.747 0-1.35-.26-1.811-.78v3.487h-1.976v-10.24h1.832l.069.724c.478-.574 1.103-.861 1.873-.861.911 0 1.62.337 2.126 1.012.506.674.759 1.604.759 2.789v.102zm-1.976-.143c0-.689-.122-1.22-.366-1.593-.244-.374-.598-.56-1.063-.56-.62 0-1.046.236-1.278.71v3.029c.241.487.672.73 1.292.73.943 0 1.415-.772 1.415-2.316zM205.652 27a2.194 2.194 0 0 1-.198-.663c-.478.533-1.1.8-1.866.8-.725 0-1.325-.21-1.801-.63a2.023 2.023 0 0 1-.715-1.585c0-.784.29-1.386.872-1.805.58-.42 1.42-.631 2.519-.636h.91v-.423c0-.342-.089-.616-.264-.82-.176-.206-.452-.308-.83-.308-.333 0-.594.08-.783.239-.19.16-.284.378-.284.656h-1.976c0-.428.132-.825.397-1.19.264-.364.638-.65 1.12-.857a4.086 4.086 0 0 1 1.628-.311c.911 0 1.635.229 2.17.687.536.458.803 1.102.803 1.931v3.206c.005.702.103 1.233.294 1.593V27h-1.996zm-1.633-1.374c.291 0 .56-.065.806-.195a1.28 1.28 0 0 0 .547-.523v-1.271h-.738c-.99 0-1.516.342-1.58 1.025l-.006.116a.79.79 0 0 0 .26.609c.173.16.41.239.71.239z"/>
        <path stroke="#FFF" stroke-linecap="square" d="M105.5 26.5v-25"/>
    </g>
</svg>
