<?xml version="1.0" encoding="utf-8"?>
<!-- Generator: Adobe Illustrator 23.0.1, SVG Export Plug-In . SVG Version: 6.00 Build 0)  -->
<svg version="1.1" id="Layer_1" xmlns="http://www.w3.org/2000/svg" xmlns:xlink="http://www.w3.org/1999/xlink" x="0px" y="0px"
	 viewBox="0 0 208 30" style="enable-background:new 0 0 208 30;" xml:space="preserve">
<style type="text/css">
	.st0{fill-rule:evenodd;clip-rule:evenodd;fill:#2AD0A7;}
	.st1{fill-rule:evenodd;clip-rule:evenodd;fill:#999999;}
	.st2{fill:none;stroke:#999999;stroke-linecap:square;}
</style>
<g>
	<path class="st0" d="M9.2,19.6h1.2c3.7,0,5.1-0.7,5.1-5.6c0-3.9-1.4-5.4-4.7-5.4H9.2V19.6z M11.2,27h-11V1.1h11.7
		c7.7,0,12.9,3.7,12.9,12.8C24.9,23.5,19.7,27,11.2,27z M28.3,1.1h9V27h-9V1.1z M59.5,27l-1.1-3.5h-8.5L48.8,27h-9l8.5-25.9h12
		L68.8,27H59.5z M56.3,16.7l-0.9-3.6C54.7,10.3,54.1,8,54.1,8h-0.2c0,0-0.4,2.2-1.1,5.1l-0.9,3.6C51.8,16.7,56.3,16.7,56.3,16.7z
		 M69.3,21.4l8.2-2.9c0.6,1.6,1.6,2.2,2.9,2.2c1.2,0,1.8-0.4,1.8-1.2c0-0.7-0.6-1.1-2-1.3C72.5,17,70,14.3,70,9.6c0-6.8,5.1-9,11-9
		c5.7,0,9.6,2,10.7,6.7L83,9.2c-0.2-1.4-1.1-1.8-2.3-1.8c-1,0-1.5,0.4-1.5,1.1c0,0.8,0.7,1.3,2.9,1.5c6.6,0.8,9.8,3.8,9.8,9.1
		c0,6.2-5.3,8.5-11.7,8.5C74.8,27.5,70.5,25.7,69.3,21.4z"/>
	<path class="st1" d="M119.9,11V1h3.1c0.9,0,1.7,0.2,2.3,0.6s1.2,1,1.6,1.7s0.6,1.6,0.6,2.5v0.5c0,0.9-0.2,1.7-0.6,2.5
		c-0.4,0.7-0.9,1.3-1.6,1.7s-1.5,0.6-2.3,0.6C123,11,119.9,11,119.9,11z M121.9,2.7v6.6h1c0.8,0,1.4-0.3,1.8-0.8s0.6-1.3,0.6-2.2
		V5.8c0-1-0.2-1.8-0.6-2.3s-1-0.8-1.8-0.8C123,2.7,121.9,2.7,121.9,2.7z M130.9,11h-2V3.6h2V11z M128.8,1.7c0-0.3,0.1-0.5,0.3-0.7
		s0.5-0.3,0.8-0.3s0.6,0.1,0.8,0.3s0.3,0.4,0.3,0.7s-0.1,0.5-0.3,0.7s-0.5,0.3-0.8,0.3s-0.6-0.1-0.8-0.3
		C128.9,2.2,128.8,2,128.8,1.7L128.8,1.7z M132.3,7.2c0-1.1,0.3-2,0.8-2.7s1.3-1,2.2-1c0.8,0,1.4,0.3,1.9,0.8l0.1-0.7h1.8v7.2
		c0,0.6-0.1,1.2-0.4,1.7c-0.3,0.5-0.7,0.9-1.2,1.1c-0.5,0.2-1.2,0.4-1.9,0.4c-0.5,0-1.1-0.1-1.6-0.3s-0.9-0.5-1.2-0.8l0.9-1.2
		c0.5,0.6,1.1,0.8,1.8,0.8c0.5,0,0.9-0.1,1.2-0.4c0.3-0.3,0.4-0.7,0.4-1.2v-0.4c-0.5,0.5-1.1,0.8-1.8,0.8c-0.9,0-1.6-0.3-2.2-1
		C132.6,9.4,132.3,8.5,132.3,7.2L132.3,7.2L132.3,7.2z M134.3,7.4c0,0.7,0.1,1.2,0.4,1.6s0.6,0.6,1.1,0.6c0.6,0,1-0.2,1.3-0.7V5.8
		c-0.3-0.5-0.7-0.7-1.3-0.7c-0.5,0-0.8,0.2-1.1,0.6C134.4,6,134.3,6.6,134.3,7.4z M142.6,11h-2V3.6h2V11z M140.5,1.7
		c0-0.3,0.1-0.5,0.3-0.7s0.5-0.3,0.8-0.3s0.6,0.1,0.8,0.3s0.3,0.4,0.3,0.7s-0.1,0.5-0.3,0.7s-0.5,0.3-0.8,0.3s-0.6-0.1-0.8-0.3
		S140.5,2,140.5,1.7L140.5,1.7z M146.6,1.8v1.8h1.3V5h-1.3v3.7c0,0.3,0.1,0.5,0.2,0.6c0.1,0.1,0.3,0.2,0.6,0.2c0.2,0,0.4,0,0.6,0V11
		c-0.4,0.1-0.8,0.2-1.2,0.2c-1.4,0-2.1-0.7-2.1-2.1v-4h-1.1V3.6h1.1V1.8H146.6L146.6,1.8z M153.3,11c-0.1-0.2-0.2-0.4-0.2-0.7
		c-0.5,0.5-1.1,0.8-1.9,0.8c-0.7,0-1.3-0.2-1.8-0.6c-0.5-0.4-0.7-1-0.7-1.6c0-0.8,0.3-1.4,0.9-1.8c0.6-0.4,1.4-0.6,2.5-0.6h0.9V6.1
		c0-0.3-0.1-0.6-0.3-0.8c-0.2-0.2-0.5-0.3-0.8-0.3s-0.6,0.1-0.8,0.2c-0.2,0.2-0.3,0.4-0.3,0.7h-2c0-0.4,0.1-0.8,0.4-1.2
		c0.3-0.4,0.6-0.7,1.1-0.9s1.1-0.3,1.6-0.3c0.9,0,1.6,0.2,2.2,0.7c0.5,0.5,0.8,1.1,0.8,1.9v3.2c0,0.7,0.1,1.2,0.3,1.6V11H153.3
		L153.3,11z M151.7,9.6c0.3,0,0.6-0.1,0.8-0.2c0.2-0.1,0.4-0.3,0.5-0.5V7.6h-0.7c-1,0-1.5,0.3-1.6,1v0.1c0,0.2,0.1,0.5,0.3,0.6
		C151.1,9.5,151.4,9.6,151.7,9.6z M160.8,11c-0.1-0.2-0.2-0.4-0.2-0.7c-0.5,0.5-1.1,0.8-1.9,0.8c-0.7,0-1.3-0.2-1.8-0.6
		c-0.5-0.4-0.7-1-0.7-1.6c0-0.8,0.3-1.4,0.9-1.8c0.6-0.4,1.4-0.6,2.5-0.6h0.9V6.1c0-0.3-0.1-0.6-0.3-0.8C160,5.1,159.7,5,159.4,5
		s-0.6,0.1-0.8,0.2c-0.2,0.2-0.3,0.4-0.3,0.7h-2c0-0.4,0.1-0.8,0.4-1.2c0.3-0.4,0.6-0.7,1.1-0.9s1.1-0.3,1.6-0.3
		c0.9,0,1.6,0.2,2.2,0.7c0.5,0.5,0.8,1.1,0.8,1.9v3.2c0,0.7,0.1,1.2,0.3,1.6V11H160.8L160.8,11z M159.2,9.6c0.3,0,0.6-0.1,0.8-0.2
		c0.2-0.1,0.4-0.3,0.5-0.5V7.6h-0.7c-1,0-1.5,0.3-1.6,1v0.1c0,0.2,0.1,0.5,0.3,0.6C158.6,9.5,158.9,9.6,159.2,9.6z M166.1,11h-2V0.5
		h2V11z M169.8,11h-2V3.6h2V11z M167.7,1.7c0-0.3,0.1-0.5,0.3-0.7s0.5-0.3,0.8-0.3s0.6,0.1,0.8,0.3s0.3,0.4,0.3,0.7
		s-0.1,0.5-0.3,0.7s-0.5,0.3-0.8,0.3s-0.6-0.1-0.8-0.3S167.7,2,167.7,1.7L167.7,1.7z M173.3,3.6l0.1,0.9c0.5-0.7,1.2-1,2.1-1
		c0.8,0,1.4,0.2,1.8,0.7c0.4,0.5,0.6,1.1,0.6,2.1V11h-2V6.3c0-0.4-0.1-0.7-0.3-0.9c-0.2-0.2-0.5-0.3-0.9-0.3c-0.6,0-1,0.2-1.3,0.7
		V11h-2V3.6C171.4,3.6,173.3,3.6,173.3,3.6z M182.7,11.1c-1.1,0-2-0.3-2.6-1c-0.7-0.7-1-1.6-1-2.7V7.3c0-0.7,0.1-1.4,0.4-2
		c0.3-0.6,0.7-1,1.2-1.4c0.5-0.3,1.1-0.5,1.8-0.5c1,0,1.8,0.3,2.4,1s0.9,1.5,0.9,2.7v0.8H181c0.1,0.5,0.3,0.9,0.6,1.2
		s0.7,0.4,1.2,0.4c0.8,0,1.4-0.3,1.8-0.8l1,1.1c-0.3,0.4-0.7,0.7-1.2,1C183.8,11,183.3,11.1,182.7,11.1L182.7,11.1z M182.5,5.1
		c-0.4,0-0.7,0.1-1,0.4c-0.2,0.3-0.4,0.6-0.5,1.1h2.7V6.4c0-0.4-0.1-0.8-0.4-1C183.2,5.2,182.9,5.1,182.5,5.1L182.5,5.1z M188.7,3.6
		l0.1,0.9c0.5-0.7,1.2-1,2.1-1c0.8,0,1.4,0.2,1.8,0.7c0.4,0.5,0.6,1.1,0.6,2.1V11h-2V6.3c0-0.4-0.1-0.7-0.3-0.9
		c-0.2-0.2-0.5-0.3-0.9-0.3c-0.6,0-1,0.2-1.2,0.7V11h-2V3.6C186.8,3.6,188.7,3.6,188.7,3.6z M124,27c-0.1-0.2-0.2-0.4-0.2-0.7
		c-0.5,0.5-1.1,0.8-1.9,0.8c-0.7,0-1.3-0.2-1.8-0.6s-0.7-1-0.7-1.6c0-0.8,0.3-1.4,0.9-1.8s1.4-0.6,2.5-0.6h0.9v-0.4
		c0-0.3-0.1-0.6-0.3-0.8c-0.2-0.2-0.5-0.3-0.8-0.3s-0.6,0.1-0.8,0.2c-0.2,0.2-0.3,0.4-0.3,0.7h-2c0-0.4,0.1-0.8,0.4-1.2
		c0.3-0.4,0.6-0.6,1.1-0.9c0.5-0.2,1.1-0.3,1.6-0.3c0.9,0,1.6,0.2,2.2,0.7c0.5,0.5,0.8,1.1,0.8,1.9v3.2c0,0.7,0.1,1.2,0.3,1.6V27
		C126,27,124,27,124,27z M122.4,25.6c0.3,0,0.6-0.1,0.8-0.2c0.2-0.1,0.4-0.3,0.5-0.5v-1.3H123c-1,0-1.5,0.3-1.6,1v0.1
		c0,0.2,0.1,0.5,0.3,0.6C121.9,25.5,122.1,25.6,122.4,25.6z M131.3,25c0-0.2-0.1-0.4-0.4-0.6c-0.2-0.1-0.6-0.3-1.2-0.4
		c-1.8-0.4-2.6-1.1-2.6-2.2c0-0.7,0.3-1.2,0.8-1.6c0.5-0.4,1.3-0.7,2.1-0.7c0.9,0,1.7,0.2,2.3,0.7c0.6,0.4,0.8,1,0.8,1.7h-2
		c0-0.3-0.1-0.5-0.3-0.7s-0.5-0.3-0.9-0.3c-0.3,0-0.6,0.1-0.8,0.2s-0.3,0.4-0.3,0.6s0.1,0.4,0.3,0.5s0.6,0.2,1,0.3
		c0.4,0.1,0.8,0.2,1.2,0.3c1,0.4,1.6,1,1.6,2c0,0.7-0.3,1.2-0.9,1.6s-1.3,0.6-2.2,0.6c-0.6,0-1.2-0.1-1.6-0.3
		c-0.5-0.2-0.9-0.5-1.1-0.9c-0.3-0.4-0.4-0.8-0.4-1.2h1.9c0,0.4,0.1,0.6,0.4,0.8c0.2,0.2,0.6,0.3,1,0.3s0.7-0.1,0.9-0.2
		C131.2,25.4,131.3,25.2,131.3,25L131.3,25z M138.9,26.2c-0.5,0.6-1.2,0.9-2,0.9s-1.4-0.2-1.8-0.7s-0.6-1.1-0.6-2v-4.8h2v4.8
		c0,0.8,0.4,1.2,1.1,1.2c0.7,0,1.1-0.2,1.4-0.7v-5.2h2V27h-1.9L138.9,26.2L138.9,26.2z M144.1,19.6l0.1,0.9c0.5-0.7,1.2-1,2.1-1
		c0.8,0,1.4,0.2,1.8,0.7c0.4,0.5,0.6,1.1,0.6,2.1V27h-2v-4.7c0-0.4-0.1-0.7-0.3-0.9c-0.2-0.2-0.5-0.3-0.9-0.3c-0.6,0-1,0.2-1.2,0.7
		V27h-2v-7.4H144.1L144.1,19.6z M152.5,17.8v1.8h1.3V21h-1.3v3.7c0,0.3,0.1,0.5,0.2,0.6c0.1,0.1,0.3,0.2,0.6,0.2c0.2,0,0.4,0,0.6,0
		V27c-0.4,0.1-0.8,0.2-1.2,0.2c-1.4,0-2.1-0.7-2.1-2.1v-4h-1.1v-1.5h1.1v-1.8C150.5,17.8,152.5,17.8,152.5,17.8z M154.6,23.2
		c0-0.7,0.1-1.4,0.4-2c0.3-0.6,0.7-1,1.2-1.3s1.1-0.5,1.9-0.5c1,0,1.8,0.3,2.4,0.9c0.6,0.6,1,1.4,1.1,2.5v0.5c0,1.1-0.3,2-0.9,2.7
		c-0.6,0.7-1.5,1-2.6,1s-1.9-0.3-2.6-1C154.9,25.4,154.6,24.5,154.6,23.2L154.6,23.2L154.6,23.2z M156.5,23.4c0,0.7,0.1,1.2,0.4,1.6
		c0.3,0.4,0.6,0.6,1.1,0.6s0.9-0.2,1.1-0.5c0.3-0.4,0.4-1,0.4-1.8c0-0.7-0.1-1.2-0.4-1.6c-0.3-0.4-0.6-0.6-1.1-0.6s-0.9,0.2-1.1,0.6
		C156.7,22,156.5,22.6,156.5,23.4z M165.5,24l-0.7,0.7V27h-2V16.5h2v5.8l0.4-0.5l1.9-2.2h2.4l-2.7,3.1l2.9,4.3h-2.3L165.5,24
		L165.5,24z M174.5,27c-0.1-0.2-0.2-0.4-0.2-0.7c-0.5,0.5-1.1,0.8-1.9,0.8c-0.7,0-1.3-0.2-1.8-0.6s-0.7-1-0.7-1.6
		c0-0.8,0.3-1.4,0.9-1.8c0.6-0.4,1.4-0.6,2.5-0.6h0.9v-0.4c0-0.3-0.1-0.6-0.3-0.8c-0.2-0.2-0.5-0.3-0.8-0.3s-0.6,0.1-0.8,0.2
		c-0.2,0.2-0.3,0.4-0.3,0.7h-2c0-0.4,0.1-0.8,0.4-1.2c0.3-0.4,0.6-0.6,1.1-0.9c0.5-0.2,1.1-0.3,1.6-0.3c0.9,0,1.6,0.2,2.2,0.7
		c0.5,0.5,0.8,1.1,0.8,1.9v3.2c0,0.7,0.1,1.2,0.3,1.6V27H174.5L174.5,27z M172.9,25.6c0.3,0,0.6-0.1,0.8-0.2s0.4-0.3,0.5-0.5v-1.3
		h-0.7c-1,0-1.5,0.3-1.6,1v0.1c0,0.2,0.1,0.5,0.3,0.6C172.4,25.5,172.6,25.6,172.9,25.6z M182.2,26.2c-0.5,0.6-1.2,0.9-2,0.9
		s-1.4-0.2-1.8-0.7s-0.6-1.1-0.6-2v-4.8h2v4.8c0,0.8,0.4,1.2,1.1,1.2c0.7,0,1.1-0.2,1.4-0.7v-5.2h2V27h-1.9L182.2,26.2z M192.3,23.4
		c0,1.1-0.3,2.1-0.8,2.7c-0.5,0.7-1.2,1-2.1,1c-0.7,0-1.4-0.3-1.8-0.8v3.5h-2V19.6h1.8l0.1,0.7c0.5-0.6,1.1-0.9,1.9-0.9
		c0.9,0,1.6,0.3,2.1,1s0.8,1.6,0.8,2.8C192.3,23.3,192.3,23.4,192.3,23.4z M190.3,23.2c0-0.7-0.1-1.2-0.4-1.6
		c-0.2-0.4-0.6-0.6-1.1-0.6c-0.6,0-1,0.2-1.3,0.7v3c0.2,0.5,0.7,0.7,1.3,0.7C189.8,25.5,190.3,24.8,190.3,23.2z M200.1,23.4
		c0,1.1-0.3,2.1-0.8,2.7c-0.5,0.7-1.2,1-2.1,1c-0.7,0-1.4-0.3-1.8-0.8v3.5h-2V19.6h1.8l0.1,0.7c0.5-0.6,1.1-0.9,1.9-0.9
		c0.9,0,1.6,0.3,2.1,1s0.8,1.6,0.8,2.8V23.4L200.1,23.4z M198.2,23.2c0-0.7-0.1-1.2-0.4-1.6c-0.2-0.4-0.6-0.6-1.1-0.6
		c-0.6,0-1,0.2-1.3,0.7v3c0.2,0.5,0.7,0.7,1.3,0.7C197.7,25.5,198.2,24.8,198.2,23.2z M205.7,27c-0.1-0.2-0.2-0.4-0.2-0.7
		c-0.5,0.5-1.1,0.8-1.9,0.8c-0.7,0-1.3-0.2-1.8-0.6s-0.7-1-0.7-1.6c0-0.8,0.3-1.4,0.9-1.8c0.6-0.4,1.4-0.6,2.5-0.6h0.9v-0.4
		c0-0.3-0.1-0.6-0.3-0.8c-0.2-0.2-0.5-0.3-0.8-0.3s-0.6,0.1-0.8,0.2c-0.2,0.2-0.3,0.4-0.3,0.7h-2c0-0.4,0.1-0.8,0.4-1.2
		c0.3-0.4,0.6-0.6,1.1-0.9c0.5-0.2,1.1-0.3,1.6-0.3c0.9,0,1.6,0.2,2.2,0.7c0.5,0.5,0.8,1.1,0.8,1.9v3.2c0,0.7,0.1,1.2,0.3,1.6V27
		H205.7z M204,25.6c0.3,0,0.6-0.1,0.8-0.2s0.4-0.3,0.5-0.5v-1.3h-0.7c-1,0-1.5,0.3-1.6,1v0.1c0,0.2,0.1,0.5,0.3,0.6
		C203.5,25.5,203.7,25.6,204,25.6L204,25.6z"/>
	<path class="st2" d="M105.5,26.5v-25"/>
</g>
</svg>
