<svg xmlns="http://www.w3.org/2000/svg" width="188" height="29" viewBox="0 0 188 29">
    <g fill="none" fill-rule="evenodd">
        <path fill="#2AD0A7" d="M9.22 19.564h1.188c3.652 0 5.06-.704 5.06-5.632 0-3.872-1.408-5.412-4.708-5.412H9.22v11.044zM11.156 27H.2V1.084h11.748c7.744 0 12.936 3.74 12.936 12.848C24.884 23.524 19.692 27 11.156 27zM28.284 1.084h9.02V27h-9.02V1.084zM59.492 27l-1.144-3.52h-8.536L48.756 27H39.78l8.492-25.916h12.012L68.82 27h-9.328zM56.28 16.748l-.924-3.564c-.748-2.816-1.276-5.06-1.276-5.06h-.176s-.396 2.244-1.144 5.06l-.924 3.564h4.444zm13.036 4.62L77.5 18.42c.572 1.584 1.584 2.244 2.948 2.244 1.188 0 1.804-.396 1.804-1.188 0-.704-.572-1.1-1.98-1.32-7.656-1.188-10.208-3.872-10.208-8.624 0-6.776 5.148-8.976 11-8.976 5.676 0 9.636 1.98 10.692 6.688L83.088 9.18c-.22-1.408-1.144-1.848-2.332-1.848-.968 0-1.54.396-1.54 1.1 0 .836.748 1.276 2.86 1.54 6.6.792 9.812 3.784 9.812 9.064 0 6.248-5.28 8.492-11.748 8.492-5.368 0-9.636-1.848-10.824-6.16z"/>
        <path fill="#FFF" d="M106.8 9.572h.924c1.526 0 2.492-.7 2.492-2.688 0-2.086-.98-2.702-2.38-2.702H106.8v5.39zM107.892 11h-2.786V2.754h2.884c2.282 0 4.004 1.134 4.004 4.032 0 3.052-1.792 4.214-4.102 4.214zm5.404-8.47c0-.644.476-1.008 1.036-1.008.602 0 1.078.364 1.078 1.008 0 .616-.476.98-1.078.98-.56 0-1.036-.364-1.036-.98zm.21 2.002h1.666V11h-1.666V4.532zm5.894-.154c.742 0 1.372.154 1.848.448.294-.252.378-.476.49-.98l1.344.448c-.07.63-.602 1.05-1.134 1.204.196.308.294.714.294 1.162 0 1.498-1.288 2.24-2.87 2.24-.308 0-.644-.042-.798-.098-.266.154-.35.35-.35.574 0 .28.196.448.574.448h1.75c1.47 0 2.282.728 2.282 1.862 0 1.806-1.876 2.268-3.682 2.268-1.54 0-2.954-.378-2.954-1.652 0-.784.56-1.274 1.694-1.358-.63-.056-.994-.546-.994-1.106 0-.504.308-1.022 1.036-1.218-.84-.35-1.316-.952-1.316-1.96 0-1.484 1.12-2.282 2.786-2.282zm-1.666 7.644c0 .56.602.798 1.596.798 1.316 0 1.918-.238 1.918-.854 0-.42-.238-.644-.896-.644h-1.526c-.658 0-1.092.224-1.092.7zm.56-5.362c0 .658.378 1.12 1.106 1.12.714 0 1.134-.392 1.134-1.12 0-.756-.42-1.134-1.134-1.12-.714 0-1.106.406-1.106 1.12zm5.46-4.13c0-.644.476-1.008 1.036-1.008.602 0 1.078.364 1.078 1.008 0 .616-.476.98-1.078.98-.56 0-1.036-.364-1.036-.98zm.21 2.002h1.666V11h-1.666V4.532zm7.266 4.83l.294 1.4c-.504.266-1.134.406-1.848.406-1.246 0-2.044-.602-2.044-2.002V5.834h-.938V4.532h.952V3.16l1.666-.196v1.568h1.918v1.302h-1.932v2.968c0 .7.294.938.812.938.406 0 .742-.126 1.12-.378zm4.62-.364v-.756c-1.456-.042-2.016.322-2.016.98 0 .434.294.742.826.742.546 0 1.19-.294 1.19-.966zm1.666-2.534V9.18c0 .462.196.602.476.602a.901.901 0 0 0 .392-.098v1.232c-.238.14-.546.196-.938.196-.798 0-1.302-.308-1.47-1.022-.308.798-1.036 1.078-1.89 1.078-1.148 0-1.918-.658-1.918-1.764 0-1.442 1.148-2.24 3.682-2.1v-.686c0-.63-.308-.966-.882-.966-.588 0-.896.364-.938.98l-1.638-.294c.098-1.372 1.274-1.96 2.66-1.96 1.484 0 2.464.63 2.464 2.086zm5.25 2.534v-.756c-1.456-.042-2.016.322-2.016.98 0 .434.294.742.826.742.546 0 1.19-.294 1.19-.966zm1.666-2.534V9.18c0 .462.196.602.476.602a.901.901 0 0 0 .392-.098v1.232c-.238.14-.546.196-.938.196-.798 0-1.302-.308-1.47-1.022-.308.798-1.036 1.078-1.89 1.078-1.148 0-1.918-.658-1.918-1.764 0-1.442 1.148-2.24 3.682-2.1v-.686c0-.63-.308-.966-.882-.966-.588 0-.896.364-.938.98l-1.638-.294c.098-1.372 1.274-1.96 2.66-1.96 1.484 0 2.464.63 2.464 2.086zm4.69 3.108l-.07 1.4c-.364.098-.672.154-.98.154-.896 0-1.694-.434-1.694-1.568v-7.91h1.666v7.448c0 .406.252.574.588.574.168 0 .322-.028.49-.098zM150.2 2.53c0-.644.476-1.008 1.036-1.008.602 0 1.078.364 1.078 1.008 0 .616-.476.98-1.078.98-.56 0-1.036-.364-1.036-.98zm.21 2.002h1.666V11h-1.666V4.532zm4.914 0l.196 1.246c.35-.966 1.078-1.4 2.072-1.4 1.022 0 1.918.588 1.918 2.03V11h-1.666V6.996c0-.742-.252-1.204-.952-1.204-.672 0-1.302.364-1.302 1.596V11h-1.666V4.532h1.4zm8.638 5.348c.574 0 1.008-.224 1.232-.938l1.428.462c-.308 1.302-1.456 1.764-2.716 1.764-1.806 0-3.038-1.204-3.038-3.318 0-2.212 1.19-3.472 3.08-3.472 1.778 0 2.674 1.19 2.674 2.828 0 .308-.028.616-.098.868h-4.046c.042 1.078.546 1.806 1.484 1.806zm-1.442-2.8h2.492c.014-.098.014-.154.014-.238 0-.686-.406-1.204-1.148-1.204-.77 0-1.26.56-1.358 1.442zm6.958-2.548l.196 1.246c.35-.966 1.078-1.4 2.072-1.4 1.022 0 1.918.588 1.918 2.03V11h-1.666V6.996c0-.742-.252-1.204-.952-1.204-.672 0-1.302.364-1.302 1.596V11h-1.666V4.532h1.4zm-61.362 19.466v-.756c-1.456-.042-2.016.322-2.016.98 0 .434.294.742.826.742.546 0 1.19-.294 1.19-.966zm1.666-2.534v2.716c0 .462.196.602.476.602a.901.901 0 0 0 .392-.098v1.232c-.238.14-.546.196-.938.196-.798 0-1.302-.308-1.47-1.022-.308.798-1.036 1.078-1.89 1.078-1.148 0-1.918-.658-1.918-1.764 0-1.442 1.148-2.24 3.682-2.1v-.686c0-.63-.308-.966-.882-.966-.588 0-.896.364-.938.98l-1.638-.294c.098-1.372 1.274-1.96 2.66-1.96 1.484 0 2.464.63 2.464 2.086zm1.428 3.052l1.4-.518c.126.714.644.994 1.302.994.602 0 1.022-.21 1.022-.658 0-.42-.252-.63-.882-.798l-.952-.224c-1.148-.28-1.652-.91-1.652-1.89 0-1.568 1.274-2.044 2.576-2.044 1.47 0 2.366.532 2.478 1.792l-1.582.224c-.056-.56-.378-.77-.98-.77-.532 0-.868.238-.868.644 0 .364.196.588.714.686l.91.21c1.26.28 1.876.924 1.876 2.03 0 1.428-1.148 1.974-2.674 1.974-1.554 0-2.464-.448-2.688-1.652zM121.976 26l-.196-1.19c-.252.896-.868 1.358-2.002 1.358-1.148 0-1.946-.588-1.946-2.1v-4.536h1.666v4.116c0 .826.28 1.26.98 1.26.658 0 1.274-.546 1.274-1.792v-3.584h1.666V26h-1.442zm4.69-6.468l.196 1.246c.35-.966 1.078-1.4 2.072-1.4 1.022 0 1.918.588 1.918 2.03V26h-1.666v-4.004c0-.742-.252-1.204-.952-1.204-.672 0-1.302.364-1.302 1.596V26h-1.666v-6.468h1.4zm9.716 4.83l.294 1.4c-.504.266-1.134.406-1.848.406-1.246 0-2.044-.602-2.044-2.002v-3.332h-.938v-1.302h.952V18.16l1.666-.196v1.568h1.918v1.302h-1.932v2.968c0 .7.294.938.812.938.406 0 .742-.126 1.12-.378zm4.074 1.806c-1.848 0-3.066-1.232-3.066-3.43 0-2.198 1.218-3.36 3.066-3.36 1.848 0 3.066 1.162 3.066 3.36s-1.218 3.43-3.066 3.43zm0-5.446c-.938 0-1.414.644-1.414 2.03 0 1.428.462 2.114 1.414 2.114.966 0 1.428-.686 1.428-2.114 0-1.386-.476-2.03-1.428-2.03zm7.91 1.82L150.942 26h-1.974l-1.96-2.744h-.392V26h-1.666v-9.352h1.666v5.32h.35l1.806-2.436h1.96l-2.366 3.01zm6.804 1.456v-.756c-1.456-.042-2.016.322-2.016.98 0 .434.294.742.826.742.546 0 1.19-.294 1.19-.966zm1.666-2.534v2.716c0 .462.196.602.476.602a.901.901 0 0 0 .392-.098v1.232c-.238.14-.546.196-.938.196-.798 0-1.302-.308-1.47-1.022-.308.798-1.036 1.078-1.89 1.078-1.148 0-1.918-.658-1.918-1.764 0-1.442 1.148-2.24 3.682-2.1v-.686c0-.63-.308-.966-.882-.966-.588 0-.896.364-.938.98l-1.638-.294c.098-1.372 1.274-1.96 2.66-1.96 1.484 0 2.464.63 2.464 2.086zm6.09 4.536l-.196-1.19c-.252.896-.868 1.358-2.002 1.358-1.148 0-1.946-.588-1.946-2.1v-4.536h1.666v4.116c0 .826.28 1.26.98 1.26.658 0 1.274-.546 1.274-1.792v-3.584h1.666V26h-1.442zm4.956-3.598v.994c0 1.162.728 1.554 1.344 1.554.854 0 1.568-.7 1.568-2.184 0-1.414-.56-2.044-1.442-2.044-.77 0-1.47.588-1.47 1.68zm0 2.744v3.696h-1.666v-9.31h1.414l.21 1.246c.378-1.036 1.26-1.4 2.128-1.4 1.582 0 2.506 1.162 2.506 3.234s-1.008 3.556-2.772 3.556c-.994 0-1.624-.476-1.82-1.022zm7.686-2.744v.994c0 1.162.728 1.554 1.344 1.554.854 0 1.568-.7 1.568-2.184 0-1.414-.56-2.044-1.442-2.044-.77 0-1.47.588-1.47 1.68zm0 2.744v3.696h-1.666v-9.31h1.414l.21 1.246c.378-1.036 1.26-1.4 2.128-1.4 1.582 0 2.506 1.162 2.506 3.234s-1.008 3.556-2.772 3.556c-.994 0-1.624-.476-1.82-1.022zm9.212-1.148v-.756c-1.456-.042-2.016.322-2.016.98 0 .434.294.742.826.742.546 0 1.19-.294 1.19-.966zm1.666-2.534v2.716c0 .462.196.602.476.602a.901.901 0 0 0 .392-.098v1.232c-.238.14-.546.196-.938.196-.798 0-1.302-.308-1.47-1.022-.308.798-1.036 1.078-1.89 1.078-1.148 0-1.918-.658-1.918-1.764 0-1.442 1.148-2.24 3.682-2.1v-.686c0-.63-.308-.966-.882-.966-.588 0-.896.364-.938.98l-1.638-.294c.098-1.372 1.274-1.96 2.66-1.96 1.484 0 2.464.63 2.464 2.086z"/>
    </g>
</svg>
