<?xml version="1.0" encoding="utf-8"?>
<!-- Generator: Adobe Illustrator 20.0.0, SVG Export Plug-In . SVG Version: 6.00 Build 0)  -->
<svg version="1.1" id="Layer_1" xmlns="http://www.w3.org/2000/svg" xmlns:xlink="http://www.w3.org/1999/xlink" x="0px" y="0px"
	 viewBox="0 0 188 29" style="enable-background:new 0 0 188 29;" xml:space="preserve">
<style type="text/css">
	.st0{fill:#2AD0A7;}
	.st1{fill:#444444;}
</style>
<g>
	<path class="st0" d="M9.2,19.6h1.2c3.7,0,5.1-0.7,5.1-5.6c0-3.9-1.4-5.4-4.7-5.4H9.2V19.6z M11.2,27h-11V1.1h11.7
		c7.7,0,12.9,3.7,12.9,12.8C24.9,23.5,19.7,27,11.2,27z M28.3,1.1h9V27h-9V1.1z M59.5,27l-1.1-3.5h-8.5L48.8,27h-9l8.5-25.9h12
		L68.8,27H59.5z M56.3,16.7l-0.9-3.6c-0.7-2.8-1.3-5.1-1.3-5.1h-0.2c0,0-0.4,2.2-1.1,5.1l-0.9,3.6C51.8,16.7,56.3,16.7,56.3,16.7z
		 M69.3,21.4l8.2-2.9c0.6,1.6,1.6,2.2,2.9,2.2c1.2,0,1.8-0.4,1.8-1.2c0-0.7-0.6-1.1-2-1.3c-7.7-1.2-10.2-3.9-10.2-8.6
		c0-6.8,5.1-9,11-9c5.7,0,9.6,2,10.7,6.7l-8.7,1.9c-0.2-1.4-1.1-1.8-2.3-1.8c-1,0-1.5,0.4-1.5,1.1c0,0.8,0.7,1.3,2.9,1.5
		c6.6,0.8,9.8,3.8,9.8,9.1c0,6.2-5.3,8.5-11.7,8.5C74.8,27.5,70.5,25.7,69.3,21.4z"/>
	<path class="st1" d="M106.8,9.6h0.9c1.5,0,2.5-0.7,2.5-2.7c0-2.1-1-2.7-2.4-2.7h-1C106.8,4.2,106.8,9.6,106.8,9.6z M107.9,11h-2.8
		V2.8h2.9c2.3,0,4,1.1,4,4C112,9.8,110.2,11,107.9,11z M113.3,2.5c0-0.6,0.5-1,1-1c0.6,0,1.1,0.4,1.1,1c0,0.6-0.5,1-1.1,1
		C113.8,3.5,113.3,3.1,113.3,2.5z M113.5,4.5h1.7V11h-1.7C113.5,11,113.5,4.5,113.5,4.5z M119.4,4.4c0.7,0,1.4,0.2,1.8,0.4
		c0.3-0.3,0.4-0.5,0.5-1l1.3,0.4c-0.1,0.6-0.6,1.1-1.1,1.2c0.2,0.3,0.3,0.7,0.3,1.2c0,1.5-1.3,2.2-2.9,2.2c-0.3,0-0.6,0-0.8-0.1
		c-0.3,0.2-0.3,0.4-0.3,0.6c0,0.3,0.2,0.4,0.6,0.4h1.8c1.5,0,2.3,0.7,2.3,1.9c0,1.8-1.9,2.3-3.7,2.3c-1.5,0-3-0.4-3-1.7
		c0-0.8,0.6-1.3,1.7-1.4c-0.6-0.1-1-0.5-1-1.1c0-0.5,0.3-1,1-1.2c-0.8-0.4-1.3-1-1.3-2C116.6,5.2,117.7,4.4,119.4,4.4z M117.7,12
		c0,0.6,0.6,0.8,1.6,0.8c1.3,0,1.9-0.2,1.9-0.9c0-0.4-0.2-0.6-0.9-0.6h-1.5C118.2,11.3,117.7,11.5,117.7,12z M118.3,6.7
		c0,0.7,0.4,1.1,1.1,1.1c0.7,0,1.1-0.4,1.1-1.1c0-0.8-0.4-1.1-1.1-1.1C118.7,5.5,118.3,5.9,118.3,6.7z M123.8,2.5c0-0.6,0.5-1,1-1
		c0.6,0,1.1,0.4,1.1,1c0,0.6-0.5,1-1.1,1C124.2,3.5,123.8,3.1,123.8,2.5z M124,4.5h1.7V11H124C124,11,124,4.5,124,4.5z M131.2,9.4
		l0.3,1.4c-0.5,0.3-1.1,0.4-1.8,0.4c-1.2,0-2-0.6-2-2V5.8h-0.9V4.5h1V3.2l1.7-0.2v1.6h1.9v1.3h-1.9v3c0,0.7,0.3,0.9,0.8,0.9
		C130.5,9.7,130.9,9.6,131.2,9.4L131.2,9.4z M135.8,9V8.2c-1.5,0-2,0.3-2,1c0,0.4,0.3,0.7,0.8,0.7C135.2,10,135.8,9.7,135.8,9z
		 M137.5,6.5v2.7c0,0.5,0.2,0.6,0.5,0.6c0.1,0,0.3,0,0.4-0.1v1.2c-0.2,0.1-0.5,0.2-0.9,0.2c-0.8,0-1.3-0.3-1.5-1
		c-0.3,0.8-1,1.1-1.9,1.1c-1.1,0-1.9-0.7-1.9-1.8c0-1.4,1.1-2.2,3.7-2.1V6.6c0-0.6-0.3-1-0.9-1c-0.6,0-0.9,0.4-0.9,1l-1.6-0.3
		c0.1-1.4,1.3-2,2.7-2C136.5,4.4,137.5,5,137.5,6.5z M142.8,9V8.2c-1.5,0-2,0.3-2,1c0,0.4,0.3,0.7,0.8,0.7
		C142.1,10,142.8,9.7,142.8,9z M144.4,6.5v2.7c0,0.5,0.2,0.6,0.5,0.6c0.1,0,0.3,0,0.4-0.1v1.2c-0.2,0.1-0.5,0.2-0.9,0.2
		c-0.8,0-1.3-0.3-1.5-1c-0.3,0.8-1,1.1-1.9,1.1c-1.1,0-1.9-0.7-1.9-1.8c0-1.4,1.1-2.2,3.7-2.1V6.6c0-0.6-0.3-1-0.9-1
		c-0.6,0-0.9,0.4-0.9,1l-1.6-0.3c0.1-1.4,1.3-2,2.7-2C143.5,4.4,144.4,5,144.4,6.5z M149.1,9.6l-0.1,1.4c-0.4,0.1-0.7,0.2-1,0.2
		c-0.9,0-1.7-0.4-1.7-1.6V1.6h1.7v7.4c0,0.4,0.3,0.6,0.6,0.6C148.8,9.7,149,9.6,149.1,9.6z M150.2,2.5c0-0.6,0.5-1,1-1
		c0.6,0,1.1,0.4,1.1,1c0,0.6-0.5,1-1.1,1C150.7,3.5,150.2,3.1,150.2,2.5z M150.4,4.5h1.7V11h-1.7V4.5z M155.3,4.5l0.2,1.2
		c0.4-1,1.1-1.4,2.1-1.4c1,0,1.9,0.6,1.9,2V11h-1.7V7c0-0.7-0.3-1.2-1-1.2c-0.7,0-1.3,0.4-1.3,1.6V11h-1.7V4.5H155.3z M164,9.9
		c0.6,0,1-0.2,1.2-0.9l1.4,0.5c-0.3,1.3-1.5,1.8-2.7,1.8c-1.8,0-3-1.2-3-3.3c0-2.2,1.2-3.5,3.1-3.5c1.8,0,2.7,1.2,2.7,2.8
		c0,0.3,0,0.6-0.1,0.9h-4C162.5,9.2,163,9.9,164,9.9L164,9.9z M162.5,7.1h2.5c0-0.1,0-0.2,0-0.2c0-0.7-0.4-1.2-1.1-1.2
		C163.1,5.6,162.6,6.2,162.5,7.1L162.5,7.1z M169.5,4.5l0.2,1.2c0.4-1,1.1-1.4,2.1-1.4c1,0,1.9,0.6,1.9,2V11H172V7
		c0-0.7-0.3-1.2-1-1.2c-0.7,0-1.3,0.4-1.3,1.6V11h-1.7V4.5C168.1,4.5,169.5,4.5,169.5,4.5z M108.1,24v-0.8c-1.5,0-2,0.3-2,1
		c0,0.4,0.3,0.7,0.8,0.7C107.5,25,108.1,24.7,108.1,24z M109.8,21.5v2.7c0,0.5,0.2,0.6,0.5,0.6c0.1,0,0.3,0,0.4-0.1v1.2
		c-0.2,0.1-0.5,0.2-0.9,0.2c-0.8,0-1.3-0.3-1.5-1c-0.3,0.8-1,1.1-1.9,1.1c-1.1,0-1.9-0.7-1.9-1.8c0-1.4,1.1-2.2,3.7-2.1v-0.7
		c0-0.6-0.3-1-0.9-1c-0.6,0-0.9,0.4-0.9,1l-1.6-0.3c0.1-1.4,1.3-2,2.7-2C108.8,19.4,109.8,20,109.8,21.5L109.8,21.5z M111.2,24.5
		l1.4-0.5c0.1,0.7,0.6,1,1.3,1c0.6,0,1-0.2,1-0.7c0-0.4-0.3-0.6-0.9-0.8l-1-0.2c-1.1-0.3-1.7-0.9-1.7-1.9c0-1.6,1.3-2,2.6-2
		c1.5,0,2.4,0.5,2.5,1.8l-1.6,0.2c-0.1-0.6-0.4-0.8-1-0.8c-0.5,0-0.9,0.2-0.9,0.6c0,0.4,0.2,0.6,0.7,0.7l0.9,0.2
		c1.3,0.3,1.9,0.9,1.9,2c0,1.4-1.1,2-2.7,2C112.3,26.2,111.4,25.7,111.2,24.5L111.2,24.5z M122,26l-0.2-1.2c-0.3,0.9-0.9,1.4-2,1.4
		c-1.1,0-1.9-0.6-1.9-2.1v-4.5h1.7v4.1c0,0.8,0.3,1.3,1,1.3c0.7,0,1.3-0.5,1.3-1.8v-3.6h1.7V26C123.4,26,122,26,122,26z M126.7,19.5
		l0.2,1.2c0.3-1,1.1-1.4,2.1-1.4c1,0,1.9,0.6,1.9,2V26h-1.7v-4c0-0.7-0.3-1.2-1-1.2c-0.7,0-1.3,0.4-1.3,1.6V26h-1.7v-6.5
		C125.3,19.5,126.7,19.5,126.7,19.5z M136.4,24.4l0.3,1.4c-0.5,0.3-1.1,0.4-1.8,0.4c-1.2,0-2-0.6-2-2v-3.3h-0.9v-1.3h1v-1.4l1.7-0.2
		v1.6h1.9v1.3h-1.9v3c0,0.7,0.3,0.9,0.8,0.9C135.7,24.7,136,24.6,136.4,24.4L136.4,24.4z M140.5,26.2c-1.8,0-3.1-1.2-3.1-3.4
		s1.2-3.4,3.1-3.4c1.8,0,3.1,1.2,3.1,3.4S142.3,26.2,140.5,26.2z M140.5,20.7c-0.9,0-1.4,0.6-1.4,2c0,1.4,0.5,2.1,1.4,2.1
		c1,0,1.4-0.7,1.4-2.1C141.9,21.4,141.4,20.7,140.5,20.7z M148.4,22.5l2.6,3.5h-2l-2-2.7h-0.4V26h-1.7v-9.4h1.7V22h0.4l1.8-2.4h2
		C150.7,19.5,148.4,22.5,148.4,22.5z M155.2,24v-0.8c-1.5,0-2,0.3-2,1c0,0.4,0.3,0.7,0.8,0.7C154.5,25,155.2,24.7,155.2,24z
		 M156.8,21.5v2.7c0,0.5,0.2,0.6,0.5,0.6c0.1,0,0.3,0,0.4-0.1v1.2c-0.2,0.1-0.5,0.2-0.9,0.2c-0.8,0-1.3-0.3-1.5-1
		c-0.3,0.8-1,1.1-1.9,1.1c-1.1,0-1.9-0.7-1.9-1.8c0-1.4,1.1-2.2,3.7-2.1v-0.7c0-0.6-0.3-1-0.9-1c-0.6,0-0.9,0.4-0.9,1l-1.6-0.3
		c0.1-1.4,1.3-2,2.7-2C155.9,19.4,156.8,20,156.8,21.5z M162.9,26l-0.2-1.2c-0.3,0.9-0.9,1.4-2,1.4c-1.1,0-1.9-0.6-1.9-2.1v-4.5h1.7
		v4.1c0,0.8,0.3,1.3,1,1.3c0.7,0,1.3-0.5,1.3-1.8v-3.6h1.7V26C164.4,26,162.9,26,162.9,26z M167.9,22.4v1c0,1.2,0.7,1.6,1.3,1.6
		c0.9,0,1.6-0.7,1.6-2.2c0-1.4-0.6-2-1.4-2C168.6,20.7,167.9,21.3,167.9,22.4L167.9,22.4z M167.9,25.1v3.7h-1.7v-9.3h1.4l0.2,1.2
		c0.4-1,1.3-1.4,2.1-1.4c1.6,0,2.5,1.2,2.5,3.2s-1,3.6-2.8,3.6C168.7,26.2,168.1,25.7,167.9,25.1z M175.6,22.4v1
		c0,1.2,0.7,1.6,1.3,1.6c0.9,0,1.6-0.7,1.6-2.2c0-1.4-0.6-2-1.4-2C176.3,20.7,175.6,21.3,175.6,22.4L175.6,22.4z M175.6,25.1v3.7
		h-1.7v-9.3h1.4l0.2,1.2c0.4-1,1.3-1.4,2.1-1.4c1.6,0,2.5,1.2,2.5,3.2s-1,3.6-2.8,3.6C176.4,26.2,175.8,25.7,175.6,25.1z M184.8,24
		v-0.8c-1.5,0-2,0.3-2,1c0,0.4,0.3,0.7,0.8,0.7C184.1,25,184.8,24.7,184.8,24z M186.4,21.5v2.7c0,0.5,0.2,0.6,0.5,0.6
		c0.1,0,0.3,0,0.4-0.1v1.2c-0.2,0.1-0.5,0.2-0.9,0.2c-0.8,0-1.3-0.3-1.5-1c-0.3,0.8-1,1.1-1.9,1.1c-1.1,0-1.9-0.7-1.9-1.8
		c0-1.4,1.1-2.2,3.7-2.1v-0.7c0-0.6-0.3-1-0.9-1c-0.6,0-0.9,0.4-0.9,1l-1.6-0.3c0.1-1.4,1.3-2,2.7-2C185.5,19.4,186.4,20,186.4,21.5
		z"/>
</g>
</svg>
