<?xml version="1.0" encoding="utf-8"?>
<!-- Generator: Adobe Illustrator 23.0.1, SVG Export Plug-In . SVG Version: 6.00 Build 0)  -->
<svg version="1.1" id="Layer_1" xmlns="http://www.w3.org/2000/svg" xmlns:xlink="http://www.w3.org/1999/xlink" x="0px" y="0px"
	 viewBox="0 0 205.6 46.8" style="enable-background:new 0 0 205.6 46.8;" xml:space="preserve">
<style type="text/css">
	.st0{fill-rule:evenodd;clip-rule:evenodd;fill:#999999;}
	.st1{fill:none;stroke:#999999;stroke-linecap:square;}
	.st2{fill:#2AD0A7;}
	.st3{font-family:'National-Black';}
	.st4{font-size:44px;}
</style>
<title>logo CHMS</title>
<path class="st0" d="M115.9,20.5v-10h3.1c0.8,0,1.6,0.2,2.3,0.6c0.7,0.4,1.2,1,1.6,1.7c0.4,0.8,0.6,1.6,0.6,2.5v0.6
	c0,0.9-0.2,1.7-0.6,2.5c-0.4,0.7-0.9,1.3-1.6,1.7c-0.7,0.4-1.5,0.6-2.3,0.6C119,20.5,115.9,20.5,115.9,20.5z M117.9,12.2v6.7h1
	c0.7,0,1.4-0.3,1.8-0.8c0.4-0.6,0.6-1.4,0.6-2.2v-0.5c0.1-0.8-0.2-1.6-0.6-2.3c-0.4-0.5-1.1-0.8-1.8-0.8L117.9,12.2z M126.9,20.5h-2
	v-7.4h2V20.5z M124.8,11.2c0-0.3,0.1-0.5,0.3-0.7c0.5-0.4,1.1-0.4,1.6,0c0.2,0.2,0.3,0.4,0.3,0.7c0,0.3-0.1,0.5-0.3,0.7
	c-0.5,0.4-1.1,0.4-1.6,0C124.9,11.7,124.8,11.5,124.8,11.2z M128.3,16.7c0-1,0.3-1.9,0.8-2.7c1-1.2,2.7-1.3,3.9-0.4
	c0.1,0,0.1,0.1,0.2,0.2l0.1-0.7h1.8v7.2c0,0.6-0.1,1.2-0.4,1.7c-0.3,0.5-0.7,0.9-1.2,1.1c-0.6,0.2-1.2,0.4-1.9,0.4
	c-0.5,0-1.1-0.1-1.6-0.3c-0.4-0.2-0.9-0.5-1.2-0.8l0.9-1.2c0.4,0.5,1.1,0.8,1.8,0.8c0.8,0.1,1.5-0.4,1.6-1.2c0-0.1,0-0.3,0-0.4V20
	c-0.5,0.5-1.1,0.8-1.8,0.8c-0.8,0-1.7-0.3-2.2-1C128.6,18.9,128.3,17.8,128.3,16.7L128.3,16.7z M130.3,16.9c0,0.6,0.1,1.1,0.4,1.6
	c0.2,0.4,0.7,0.6,1.1,0.6c0.5,0,1-0.2,1.3-0.7v-3.1c-0.3-0.5-0.8-0.7-1.3-0.7c-0.4,0-0.9,0.2-1.1,0.6
	C130.4,15.7,130.3,16.3,130.3,16.9z M138.6,20.5h-2v-7.4h2V20.5z M136.5,11.2c0-0.3,0.1-0.5,0.3-0.7c0.5-0.4,1.1-0.4,1.6,0
	c0.2,0.2,0.3,0.4,0.3,0.7c0,0.3-0.1,0.5-0.3,0.7c-0.5,0.4-1.1,0.4-1.6,0C136.6,11.7,136.5,11.5,136.5,11.2z M142.6,11.3v1.8h1.3v1.4
	h-1.2v3.7c-0.1,0.4,0.2,0.7,0.6,0.8c0.1,0,0.1,0,0.2,0h0.6v1.5c-0.4,0.1-0.8,0.2-1.2,0.2c-1,0.1-2-0.6-2.1-1.6c0-0.2,0-0.3,0-0.5v-4
	h-1.1v-1.5h1.1v-1.8L142.6,11.3z M149.3,20.5c-0.1-0.2-0.2-0.5-0.2-0.7c-0.5,0.5-1.2,0.8-1.9,0.8c-0.7,0-1.3-0.2-1.8-0.6
	c-0.5-0.4-0.7-1-0.7-1.6c0-0.7,0.3-1.4,0.9-1.8c0.8-0.4,1.6-0.7,2.5-0.6h0.9v-0.4c0.1-0.5-0.3-1-0.9-1.1c-0.1,0-0.1,0-0.2,0
	c-0.3,0-0.6,0.1-0.8,0.2c-0.2,0.2-0.3,0.4-0.3,0.7h-2c0-0.4,0.1-0.9,0.4-1.2c0.3-0.4,0.7-0.7,1.1-0.9c0.5-0.2,1.1-0.3,1.6-0.3
	c0.8,0,1.6,0.2,2.2,0.7c0.5,0.5,0.8,1.2,0.8,1.9v3.3c0,0.5,0.1,1.1,0.3,1.6v0.1L149.3,20.5z M147.7,19.1c0.3,0,0.6-0.1,0.8-0.2
	c0.2-0.1,0.4-0.3,0.5-0.5v-1.3h-0.7c-1,0-1.5,0.3-1.6,1v0.1c0,0.2,0.1,0.5,0.3,0.6C147.2,19,147.5,19.1,147.7,19.1L147.7,19.1z
	 M156.8,20.5c-0.1-0.2-0.2-0.5-0.2-0.7c-0.5,0.5-1.2,0.8-1.9,0.8c-0.7,0-1.3-0.2-1.8-0.6c-0.5-0.4-0.7-1-0.7-1.6
	c0-0.7,0.3-1.4,0.9-1.8c0.8-0.4,1.6-0.7,2.5-0.6h0.9v-0.4c0.1-0.5-0.3-1-0.9-1.1c-0.1,0-0.1,0-0.2,0c-0.3,0-0.6,0.1-0.8,0.2
	c-0.2,0.2-0.3,0.4-0.3,0.7h-2c0-0.4,0.1-0.9,0.4-1.2c0.3-0.4,0.7-0.7,1.1-0.9c0.5-0.2,1.1-0.3,1.6-0.3c0.8,0,1.6,0.2,2.2,0.7
	c0.5,0.5,0.8,1.2,0.8,1.9v3.3c0,0.5,0.1,1.1,0.3,1.6v0.1L156.8,20.5z M155.2,19.1c0.3,0,0.6-0.1,0.8-0.2c0.2-0.1,0.4-0.3,0.5-0.5
	v-1.3h-0.7c-1,0-1.5,0.3-1.6,1v0.1c0,0.2,0.1,0.5,0.3,0.6C154.7,19,155,19.1,155.2,19.1L155.2,19.1z M162.1,20.5h-2V10h2V20.5z
	 M165.8,20.5h-2v-7.4h2V20.5z M163.7,11.2c0-0.3,0.1-0.5,0.3-0.7c0.5-0.4,1.1-0.4,1.6,0c0.2,0.2,0.3,0.4,0.3,0.7
	c0,0.3-0.1,0.5-0.3,0.7c-0.5,0.4-1.1,0.4-1.6,0C163.8,11.7,163.7,11.5,163.7,11.2z M169.3,13.1l0.1,0.9c0.5-0.7,1.3-1.1,2.1-1
	c0.7-0.1,1.3,0.2,1.8,0.7c0.4,0.6,0.7,1.4,0.6,2.1v4.7h-2v-4.6c0-0.3-0.1-0.7-0.3-0.9c-0.2-0.2-0.6-0.3-0.9-0.3
	c-0.5,0-1,0.2-1.3,0.7v5.2h-2v-7.4L169.3,13.1z M178.7,20.6c-1,0.1-1.9-0.3-2.6-1c-0.7-0.7-1.1-1.7-1-2.7v0c0-0.7,0.1-1.4,0.4-2
	c0.3-0.6,0.7-1,1.2-1.4c0.5-0.3,1.2-0.5,1.8-0.5c0.9,0,1.8,0.3,2.4,1c0.6,0.8,1,1.7,0.9,2.7v0.8H177c0.1,0.5,0.3,0.9,0.6,1.2
	c0.3,0.3,0.8,0.4,1.2,0.4c0.7,0,1.4-0.3,1.8-0.8l1,1.1c-0.3,0.4-0.7,0.7-1.2,1C179.9,20.5,179.3,20.6,178.7,20.6L178.7,20.6z
	 M178.5,14.6c-0.4,0-0.7,0.1-1,0.4c-0.2,0.3-0.4,0.7-0.5,1.1h2.7v-0.2c0-0.4-0.1-0.8-0.4-1C179.2,14.7,178.9,14.6,178.5,14.6z
	 M184.7,13.1l0.1,0.9c0.5-0.7,1.3-1.1,2.1-1c0.7-0.1,1.3,0.2,1.8,0.7c0.4,0.6,0.7,1.4,0.6,2.1v4.7h-2v-4.6c0-0.3-0.1-0.7-0.3-0.9
	c-0.2-0.2-0.6-0.3-0.9-0.3c-0.5-0.1-1,0.2-1.2,0.7v5.2h-2v-7.4H184.7z M120,34.5c-0.1-0.2-0.2-0.5-0.2-0.7c-0.5,0.5-1.2,0.8-1.9,0.8
	c-0.7,0-1.3-0.2-1.8-0.6c-0.5-0.4-0.7-1-0.7-1.6c0-0.7,0.3-1.4,0.9-1.8c0.8-0.4,1.6-0.7,2.5-0.6h0.9v-0.4c0.1-0.5-0.3-1-0.9-1.1
	c-0.1,0-0.1,0-0.2,0c-0.3,0-0.6,0.1-0.8,0.2c-0.2,0.2-0.3,0.4-0.3,0.7h-2c0-0.4,0.1-0.9,0.4-1.2c0.3-0.4,0.7-0.7,1.1-0.9
	c0.5-0.2,1.1-0.3,1.6-0.3c0.8,0,1.6,0.2,2.2,0.7c0.5,0.5,0.8,1.2,0.8,1.9v3.2c0,0.5,0.1,1.1,0.3,1.6v0.1L120,34.5z M118.4,33.1
	c0.3,0,0.6-0.1,0.8-0.2c0.2-0.1,0.4-0.3,0.5-0.5v-1.3H119c-1,0-1.5,0.3-1.6,1v0.1c0,0.2,0.1,0.5,0.3,0.6
	C117.9,33,118.2,33.1,118.4,33.1L118.4,33.1z M127.3,32.5c0-0.3-0.2-0.5-0.4-0.6c-0.4-0.2-0.8-0.3-1.2-0.4c-1.8-0.4-2.6-1.1-2.6-2.2
	c0-0.6,0.3-1.2,0.8-1.6c1.3-0.9,3.1-0.9,4.4,0c0.6,0.4,0.9,1,0.8,1.7h-2c0-0.3-0.1-0.5-0.3-0.7c-0.2-0.2-0.6-0.3-0.9-0.3
	c-0.3,0-0.6,0.1-0.8,0.2c-0.2,0.1-0.3,0.4-0.3,0.6c0,0.2,0.1,0.4,0.3,0.5c0.3,0.1,0.7,0.2,1,0.3l1.2,0.3c0.9,0.2,1.6,1,1.6,2
	c0,0.7-0.3,1.3-0.9,1.6c-1.2,0.7-2.6,0.8-3.8,0.3c-0.5-0.2-0.9-0.5-1.1-0.9c-0.3-0.3-0.4-0.8-0.4-1.2h1.9c0,0.3,0.1,0.6,0.4,0.8
	c0.3,0.2,0.6,0.3,1,0.3c0.3,0,0.6-0.1,0.9-0.2C127.2,32.9,127.4,32.7,127.3,32.5L127.3,32.5z M134.9,33.7c-0.5,0.6-1.2,0.9-2,0.9
	c-0.7,0.1-1.3-0.2-1.8-0.7c-0.4-0.6-0.6-1.3-0.6-2v-4.8h2v4.8c0,0.8,0.4,1.2,1.1,1.2c0.6,0.1,1.1-0.2,1.4-0.7v-5.2h2v7.3h-1.9
	C135.1,34.5,134.9,33.7,134.9,33.7z M140.1,27.1l0.1,0.9c0.5-0.7,1.3-1.1,2.1-1c0.7-0.1,1.3,0.2,1.8,0.7c0.4,0.6,0.7,1.4,0.6,2.1
	v4.7h-2v-4.6c0.1-0.6-0.3-1.1-0.9-1.2c-0.1,0-0.2,0-0.3,0c-0.5-0.1-1,0.2-1.2,0.7v5.2h-2v-7.4L140.1,27.1z M148.5,25.3v1.8h1.3v1.4
	h-1.3v3.7c-0.1,0.4,0.2,0.7,0.6,0.8c0.1,0,0.1,0,0.2,0h0.6v1.5c-0.4,0.1-0.8,0.2-1.2,0.2c-1,0.1-2-0.6-2.1-1.6c0-0.2,0-0.3,0-0.5v-4
	h-1.1v-1.5h1.2v-1.8H148.5z M150.6,30.7c0-0.7,0.1-1.4,0.4-2c0.3-0.5,0.7-1,1.2-1.3c0.6-0.3,1.2-0.5,1.9-0.5c0.9,0,1.8,0.3,2.4,0.9
	c0.7,0.7,1,1.6,1.1,2.5v0.5c0,1-0.3,1.9-0.9,2.7c-0.7,0.7-1.6,1.1-2.6,1c-1,0.1-1.9-0.3-2.6-1C150.9,32.8,150.5,31.8,150.6,30.7
	L150.6,30.7z M152.5,30.9c0,0.6,0.1,1.1,0.4,1.6c0.2,0.4,0.7,0.6,1.1,0.6c0.4,0,0.8-0.2,1.1-0.5c0.3-0.5,0.5-1.2,0.4-1.8
	c0-0.6-0.1-1.1-0.4-1.6c-0.2-0.4-0.7-0.6-1.1-0.6c-0.5,0-0.9,0.2-1.1,0.6C152.6,29.7,152.5,30.3,152.5,30.9L152.5,30.9z M161.5,31.5
	l-0.7,0.7v2.3h-2V24h2v5.9l0.4-0.5l1.9-2.2h2.4l-2.7,3.1l2.9,4.3h-2.3L161.5,31.5L161.5,31.5z M170.5,34.5c-0.1-0.2-0.2-0.5-0.2-0.7
	c-0.5,0.5-1.2,0.8-1.9,0.8c-0.7,0-1.3-0.2-1.8-0.6c-0.5-0.4-0.7-1-0.7-1.6c0-0.7,0.3-1.4,0.9-1.8c0.8-0.4,1.6-0.7,2.5-0.6h0.9v-0.4
	c0.1-0.5-0.3-1-0.9-1.1c-0.1,0-0.1,0-0.2,0c-0.3,0-0.6,0.1-0.8,0.2c-0.2,0.2-0.3,0.4-0.3,0.7h-2c0-0.4,0.1-0.9,0.4-1.2
	c0.3-0.4,0.7-0.7,1.1-0.9c0.5-0.2,1.1-0.3,1.6-0.3c0.8,0,1.6,0.2,2.2,0.7c0.5,0.5,0.8,1.2,0.8,1.9v3.2c0,0.5,0.1,1.1,0.3,1.6v0.1
	L170.5,34.5z M168.9,33.1c0.3,0,0.6-0.1,0.8-0.2c0.2-0.1,0.4-0.3,0.5-0.5v-1.3h-0.7c-1,0-1.5,0.3-1.6,1v0.1c0,0.2,0.1,0.5,0.3,0.6
	C168.4,33,168.7,33.1,168.9,33.1L168.9,33.1z M178.2,33.7c-0.5,0.6-1.2,0.9-2,0.9c-0.7,0.1-1.3-0.2-1.8-0.7c-0.4-0.6-0.6-1.3-0.6-2
	v-4.8h2v4.8c0,0.8,0.4,1.2,1.1,1.2c0.6,0.1,1.1-0.2,1.4-0.7v-5.2h2v7.3h-1.9L178.2,33.7z M188.3,30.9c0,1-0.2,1.9-0.8,2.7
	c-0.5,0.7-1.3,1.1-2.1,1c-0.7,0-1.3-0.3-1.7-0.8v3.5h-2V27.1h1.8l0.1,0.7c0.5-0.6,1.2-0.9,1.9-0.9c0.8-0.1,1.6,0.3,2.1,1
	c0.6,0.8,0.8,1.8,0.8,2.8L188.3,30.9z M186.3,30.7c0-0.6-0.1-1.1-0.4-1.6c-0.2-0.4-0.6-0.6-1.1-0.6c-0.5,0-1,0.2-1.3,0.7v3
	c0.2,0.5,0.8,0.8,1.3,0.7C185.8,33,186.3,32.3,186.3,30.7L186.3,30.7z M196.1,30.9c0,1-0.2,1.9-0.8,2.7c-0.5,0.7-1.3,1.1-2.1,1
	c-0.7,0-1.3-0.3-1.8-0.8v3.5h-2V27.1h1.8l0.1,0.7c0.5-0.6,1.2-0.9,1.9-0.9c0.8-0.1,1.6,0.3,2.1,1c0.6,0.8,0.8,1.8,0.8,2.8
	C196.1,30.7,196.1,30.9,196.1,30.9z M194.2,30.7c0-0.6-0.1-1.1-0.4-1.6c-0.2-0.4-0.6-0.6-1.1-0.6c-0.5,0-1,0.2-1.3,0.7v3
	c0.2,0.5,0.8,0.8,1.3,0.7C193.7,33,194.2,32.3,194.2,30.7L194.2,30.7z M201.7,34.5c-0.1-0.2-0.2-0.5-0.2-0.7
	c-0.5,0.5-1.2,0.8-1.9,0.8c-0.7,0-1.3-0.2-1.8-0.6c-0.5-0.4-0.7-1-0.7-1.6c0-0.7,0.3-1.4,0.9-1.8c0.8-0.4,1.6-0.7,2.5-0.6h0.9v-0.4
	c0.1-0.5-0.3-1-0.9-1.1c-0.1,0-0.1,0-0.2,0c-0.3,0-0.6,0.1-0.8,0.2c-0.2,0.2-0.3,0.4-0.3,0.7h-2c0-0.4,0.1-0.9,0.4-1.2
	c0.3-0.4,0.7-0.7,1.1-0.9c0.5-0.2,1.1-0.3,1.6-0.3c0.8,0,1.6,0.2,2.2,0.7c0.5,0.5,0.8,1.2,0.8,1.9v3.2c0,0.5,0.1,1.1,0.3,1.6v0.1
	L201.7,34.5z M200,33.1c0.3,0,0.6-0.1,0.8-0.2c0.2-0.1,0.4-0.3,0.5-0.5v-1.3h-0.6c-1,0-1.5,0.3-1.6,1v0.1c0,0.2,0.1,0.5,0.3,0.6
	C199.6,33,199.8,33.1,200,33.1L200,33.1z"/>
<path class="st1" d="M104.5,35V10"/>
<text transform="matrix(0.88 0 0 1 0 34.96)" class="st2 st3 st4">CHMS</text>
</svg>
